<svg xmlns="http://www.w3.org/2000/svg" height="300.0" viewBox="-0.87 -0.5532016310461191 1.6400000000000001 1.099451631046119" width="450.0" xmlns:xlink="http://www.w3.org/1999/xlink"><defs><linearGradient x2="6.123233995736766e-17" y1="1.0" id="pixel" y2="0.0" x1="0.0"><stop stop-opacity="1.0" offset="0" stop-color="#a6cee3"/><stop stop-opacity="1.0" offset="1" stop-color="#1f78b4"/></linearGradient></defs><g stroke-opacity="0.0" fill-opacity="2.5e-2" stroke="#000000" stroke-width="0.0" fill="#808080"><rect height="0.8998875140607423" width="1.198703003350375" x="-0.6620351779374716" y="-0.4999999999999999"/></g><g stroke-opacity="5.0e-2" stroke="#808080" stroke-width="5.0e-3" fill="none"><polyline points="-0.6620351779374716,0.39988751406074247
0.5366678254129034,0.39988751406074247"/></g><g stroke-opacity="5.0e-2" stroke="#808080" stroke-width="5.0e-3" fill="none"><polyline points="-0.6620351779374716,0.30989876265466826
0.5366678254129034,0.30989876265466826"/></g><g stroke-opacity="5.0e-2" stroke="#808080" stroke-width="5.0e-3" fill="none"><polyline points="-0.6620351779374716,0.219910011248594
0.5366678254129034,0.219910011248594"/></g><g stroke-opacity="5.0e-2" stroke="#808080" stroke-width="5.0e-3" fill="none"><polyline points="-0.6620351779374716,0.12992125984251973
0.5366678254129034,0.12992125984251973"/></g><g stroke-opacity="5.0e-2" stroke="#808080" stroke-width="5.0e-3" fill="none"><polyline points="-0.6620351779374716,3.9932508436445524e-2
0.5366678254129034,3.9932508436445524e-2"/></g><g stroke-opacity="5.0e-2" stroke="#808080" stroke-width="5.0e-3" fill="none"><polyline points="-0.6620351779374716,-5.005624296962874e-2
0.5366678254129034,-5.005624296962874e-2"/></g><g stroke-opacity="5.0e-2" stroke="#808080" stroke-width="5.0e-3" fill="none"><polyline points="-0.6620351779374716,-0.14004499437570306
0.5366678254129034,-0.14004499437570306"/></g><g stroke-opacity="5.0e-2" stroke="#808080" stroke-width="5.0e-3" fill="none"><polyline points="-0.6620351779374716,-0.23003374578177727
0.5366678254129034,-0.23003374578177727"/></g><g stroke-opacity="5.0e-2" stroke="#808080" stroke-width="5.0e-3" fill="none"><polyline points="-0.6620351779374716,-0.3200224971878515
0.5366678254129034,-0.3200224971878515"/></g><g stroke-opacity="5.0e-2" stroke="#808080" stroke-width="5.0e-3" fill="none"><polyline points="-0.6620351779374716,-0.4100112485939257
0.5366678254129034,-0.4100112485939257"/></g><g stroke-opacity="5.0e-2" stroke="#808080" stroke-width="5.0e-3" fill="none"><polyline points="-0.6620351779374716,-0.4999999999999999
0.5366678254129034,-0.4999999999999999"/></g><g fill-opacity="1.0" font-size="5.0e-2" stroke="none" stroke-width="0.0" fill="#808080" text-anchor="end"><text x="-0.75" y="0.4129358830146232">-0.5</text></g><g fill-opacity="1.0" font-size="5.0e-2" stroke="none" stroke-width="0.0" fill="#808080" text-anchor="end"><text x="-0.75" y="0.32294713160854904">-0.4</text></g><g fill-opacity="1.0" font-size="5.0e-2" stroke="none" stroke-width="0.0" fill="#808080" text-anchor="end"><text x="-0.75" y="0.23295838020247478">-0.3</text></g><g fill-opacity="1.0" font-size="5.0e-2" stroke="none" stroke-width="0.0" fill="#808080" text-anchor="end"><text x="-0.75" y="0.14296962879640052">-0.2</text></g><g fill-opacity="1.0" font-size="5.0e-2" stroke="none" stroke-width="0.0" fill="#808080" text-anchor="end"><text x="-0.75" y="5.298087739032631e-2">-0.1</text></g><g fill-opacity="1.0" font-size="5.0e-2" stroke="none" stroke-width="0.0" fill="#808080" text-anchor="end"><text x="-0.75" y="-3.700787401574801e-2">0</text></g><g fill-opacity="1.0" font-size="5.0e-2" stroke="none" stroke-width="0.0" fill="#808080" text-anchor="end"><text x="-0.75" y="-0.12699662542182233">0.1</text></g><g fill-opacity="1.0" font-size="5.0e-2" stroke="none" stroke-width="0.0" fill="#808080" text-anchor="end"><text x="-0.75" y="-0.21698537682789654">0.2</text></g><g fill-opacity="1.0" font-size="5.0e-2" stroke="none" stroke-width="0.0" fill="#808080" text-anchor="end"><text x="-0.75" y="-0.30697412823397063">0.3</text></g><g fill-opacity="1.0" font-size="5.0e-2" stroke="none" stroke-width="0.0" fill="#808080" text-anchor="end"><text x="-0.75" y="-0.39696287964004495">0.4</text></g><g fill-opacity="1.0" font-size="5.0e-2" stroke="none" stroke-width="0.0" fill="#808080" text-anchor="end"><text x="-0.75" y="-0.48695163104611905">0.5</text></g><g stroke-opacity="1.0" fill-opacity="1.0" stroke="#808080" stroke-width="5.0e-3" fill="#808080"><g transform="rotate(-90.0, -0.7239681664439077, 0.39988751406074247)"><polyline points="-0.7239681664439077,0.4148875140607425
-0.7239681664439077,0.38488751406074245"/></g><g transform="rotate(-90.0, -0.7239681664439077, 0.30989876265466826)"><polyline points="-0.7239681664439077,0.32489876265466827
-0.7239681664439077,0.29489876265466825"/></g><g transform="rotate(-90.0, -0.7239681664439077, 0.219910011248594)"><polyline points="-0.7239681664439077,0.234910011248594
-0.7239681664439077,0.20491001124859398"/></g><g transform="rotate(-90.0, -0.7239681664439077, 0.12992125984251973)"><polyline points="-0.7239681664439077,0.14492125984251975
-0.7239681664439077,0.11492125984251973"/></g><g transform="rotate(-90.0, -0.7239681664439077, 3.9932508436445524e-2)"><polyline points="-0.7239681664439077,5.4932508436445524e-2
-0.7239681664439077,2.4932508436445525e-2"/></g><g transform="rotate(-90.0, -0.7239681664439077, -5.005624296962874e-2)"><polyline points="-0.7239681664439077,-3.505624296962874e-2
-0.7239681664439077,-6.505624296962874e-2"/></g><g transform="rotate(-90.0, -0.7239681664439077, -0.14004499437570306)"><polyline points="-0.7239681664439077,-0.12504499437570304
-0.7239681664439077,-0.15504499437570307"/></g><g transform="rotate(-90.0, -0.7239681664439077, -0.23003374578177727)"><polyline points="-0.7239681664439077,-0.21503374578177725
-0.7239681664439077,-0.24503374578177728"/></g><g transform="rotate(-90.0, -0.7239681664439077, -0.3200224971878515)"><polyline points="-0.7239681664439077,-0.30502249718785146
-0.7239681664439077,-0.3350224971878515"/></g><g transform="rotate(-90.0, -0.7239681664439077, -0.4100112485939257)"><polyline points="-0.7239681664439077,-0.39501124859392567
-0.7239681664439077,-0.4250112485939257"/></g><g transform="rotate(-90.0, -0.7239681664439077, -0.4999999999999999)"><polyline points="-0.7239681664439077,-0.4849999999999999
-0.7239681664439077,-0.5149999999999999"/></g></g><g stroke-opacity="1.0" fill-opacity="1.0" stroke="#808080" stroke-width="0.0" fill="#808080"><rect height="0.8998875140607423" width="3.995676677834625e-3" x="-0.7139789747493213" y="-0.4999999999999999"/></g><g stroke-opacity="5.0e-2" stroke="#808080" stroke-width="5.0e-3" fill="none"><polyline points="-0.6620351779374716,0.39988751406074247
-0.6620351779374716,-0.4999999999999999"/></g><g stroke-opacity="5.0e-2" stroke="#808080" stroke-width="5.0e-3" fill="none"><polyline points="-0.5421648776024341,0.39988751406074247
-0.5421648776024341,-0.4999999999999999"/></g><g stroke-opacity="5.0e-2" stroke="#808080" stroke-width="5.0e-3" fill="none"><polyline points="-0.4222945772673966,0.39988751406074247
-0.4222945772673966,-0.4999999999999999"/></g><g stroke-opacity="5.0e-2" stroke="#808080" stroke-width="5.0e-3" fill="none"><polyline points="-0.3024242769323592,0.39988751406074247
-0.3024242769323592,-0.4999999999999999"/></g><g stroke-opacity="5.0e-2" stroke="#808080" stroke-width="5.0e-3" fill="none"><polyline points="-0.18255397659732164,0.39988751406074247
-0.18255397659732164,-0.4999999999999999"/></g><g stroke-opacity="5.0e-2" stroke="#808080" stroke-width="5.0e-3" fill="none"><polyline points="-6.268367626228422e-2,0.39988751406074247
-6.268367626228422e-2,-0.4999999999999999"/></g><g stroke-opacity="5.0e-2" stroke="#808080" stroke-width="5.0e-3" fill="none"><polyline points="5.7186624072753434e-2,0.39988751406074247
5.7186624072753434e-2,-0.4999999999999999"/></g><g stroke-opacity="5.0e-2" stroke="#808080" stroke-width="5.0e-3" fill="none"><polyline points="0.17705692440779064,0.39988751406074247
0.17705692440779064,-0.4999999999999999"/></g><g stroke-opacity="5.0e-2" stroke="#808080" stroke-width="5.0e-3" fill="none"><polyline points="0.2969272247428285,0.39988751406074247
0.2969272247428285,-0.4999999999999999"/></g><g stroke-opacity="5.0e-2" stroke="#808080" stroke-width="5.0e-3" fill="none"><polyline points="0.41679752507786594,0.39988751406074247
0.41679752507786594,-0.4999999999999999"/></g><g stroke-opacity="5.0e-2" stroke="#808080" stroke-width="5.0e-3" fill="none"><polyline points="0.5366678254129034,0.39988751406074247
0.5366678254129034,-0.4999999999999999"/></g><g fill-opacity="1.0" font-size="5.0e-2" stroke="none" stroke-width="0.0" fill="#808080" text-anchor="middle"><text x="-0.6620351779374716" y="0.5">-0.5</text></g><g fill-opacity="1.0" font-size="5.0e-2" stroke="none" stroke-width="0.0" fill="#808080" text-anchor="middle"><text x="-0.5421648776024341" y="0.5">-0.4</text></g><g fill-opacity="1.0" font-size="5.0e-2" stroke="none" stroke-width="0.0" fill="#808080" text-anchor="middle"><text x="-0.4222945772673966" y="0.5">-0.3</text></g><g fill-opacity="1.0" font-size="5.0e-2" stroke="none" stroke-width="0.0" fill="#808080" text-anchor="middle"><text x="-0.3024242769323592" y="0.5">-0.2</text></g><g fill-opacity="1.0" font-size="5.0e-2" stroke="none" stroke-width="0.0" fill="#808080" text-anchor="middle"><text x="-0.18255397659732164" y="0.5">-0.1</text></g><g fill-opacity="1.0" font-size="5.0e-2" stroke="none" stroke-width="0.0" fill="#808080" text-anchor="middle"><text x="-6.268367626228422e-2" y="0.5">0</text></g><g fill-opacity="1.0" font-size="5.0e-2" stroke="none" stroke-width="0.0" fill="#808080" text-anchor="middle"><text x="5.7186624072753434e-2" y="0.5">0.1</text></g><g fill-opacity="1.0" font-size="5.0e-2" stroke="none" stroke-width="0.0" fill="#808080" text-anchor="middle"><text x="0.17705692440779064" y="0.5">0.2</text></g><g fill-opacity="1.0" font-size="5.0e-2" stroke="none" stroke-width="0.0" fill="#808080" text-anchor="middle"><text x="0.2969272247428285" y="0.5">0.3</text></g><g fill-opacity="1.0" font-size="5.0e-2" stroke="none" stroke-width="0.0" fill="#808080" text-anchor="middle"><text x="0.41679752507786594" y="0.5">0.4</text></g><g fill-opacity="1.0" font-size="5.0e-2" stroke="none" stroke-width="0.0" fill="#808080" text-anchor="middle"><text x="0.5366678254129034" y="0.5">0.5</text></g><g stroke-opacity="1.0" fill-opacity="1.0" stroke="#808080" stroke-width="5.0e-3" fill="#808080"><polyline points="-0.6620351779374716,0.4396344206974129
-0.6620351779374716,0.40963442069741285"/><polyline points="-0.5421648776024341,0.4396344206974129
-0.5421648776024341,0.40963442069741285"/><polyline points="-0.4222945772673966,0.4396344206974129
-0.4222945772673966,0.40963442069741285"/><polyline points="-0.3024242769323592,0.4396344206974129
-0.3024242769323592,0.40963442069741285"/><polyline points="-0.18255397659732164,0.4396344206974129
-0.18255397659732164,0.40963442069741285"/><polyline points="-6.268367626228422e-2,0.4396344206974129
-6.268367626228422e-2,0.40963442069741285"/><polyline points="5.7186624072753434e-2,0.4396344206974129
5.7186624072753434e-2,0.40963442069741285"/><polyline points="0.17705692440779064,0.4396344206974129
0.17705692440779064,0.40963442069741285"/><polyline points="0.2969272247428285,0.4396344206974129
0.2969272247428285,0.40963442069741285"/><polyline points="0.41679752507786594,0.4396344206974129
0.41679752507786594,0.40963442069741285"/><polyline points="0.5366678254129034,0.4396344206974129
0.5366678254129034,0.40963442069741285"/></g><g stroke-opacity="1.0" fill-opacity="1.0" stroke="#808080" stroke-width="0.0" fill="#808080"><rect height="4.499437570303688e-3" width="1.198703003350375" x="-0.6620351779374716" y="0.4088863892013499"/></g><g stroke-opacity="0.0" fill-opacity="1.0" stroke="#000000" stroke-width="0.0" fill="#a6cee3"><rect height="8.998875140607421e-2" width="0.11987030033503743" x="-0.6620351779374716" y="0.30989876265466826"/></g><g stroke-opacity="0.0" fill-opacity="1.0" stroke="#000000" stroke-width="0.0" fill="#87bad8"><rect height="8.998875140607421e-2" width="0.11987030033503743" x="-0.6620351779374716" y="0.21991001124859405"/></g><g stroke-opacity="0.0" fill-opacity="1.0" stroke="#000000" stroke-width="0.0" fill="#4591c1"><rect height="8.998875140607426e-2" width="0.11987030033503743" x="-0.6620351779374716" y="0.12992125984251973"/></g><g stroke-opacity="0.0" fill-opacity="1.0" stroke="#000000" stroke-width="0.0" fill="#5d9fc9"><rect height="8.998875140607421e-2" width="0.11987030033503743" x="-0.6620351779374716" y="3.9932508436445524e-2"/></g><g stroke-opacity="0.0" fill-opacity="1.0" stroke="#000000" stroke-width="0.0" fill="#85b9d8"><rect height="8.998875140607426e-2" width="0.11987030033503743" x="-0.6620351779374716" y="-5.005624296962874e-2"/></g><g stroke-opacity="0.0" fill-opacity="1.0" stroke="#000000" stroke-width="0.0" fill="#8bbdda"><rect height="8.998875140607421e-2" width="0.11987030033503743" x="-0.6620351779374716" y="-0.14004499437570295"/></g><g stroke-opacity="0.0" fill-opacity="1.0" stroke="#000000" stroke-width="0.0" fill="#5fa1ca"><rect height="8.998875140607421e-2" width="0.11987030033503743" x="-0.6620351779374716" y="-0.23003374578177727"/></g><g stroke-opacity="0.0" fill-opacity="1.0" stroke="#000000" stroke-width="0.0" fill="#3f8cbf"><rect height="8.998875140607421e-2" width="0.11987030033503743" x="-0.6620351779374716" y="-0.3200224971878515"/></g><g stroke-opacity="0.0" fill-opacity="1.0" stroke="#000000" stroke-width="0.0" fill="#2f82ba"><rect height="8.998875140607421e-2" width="0.11987030033503743" x="-0.6620351779374716" y="-0.4100112485939257"/></g><g stroke-opacity="0.0" fill-opacity="1.0" stroke="#000000" stroke-width="0.0" fill="#71acd0"><rect height="8.998875140607421e-2" width="0.11987030033503743" x="-0.6620351779374716" y="-0.4999999999999999"/></g><g stroke-opacity="0.0" fill-opacity="1.0" stroke="#000000" stroke-width="0.0" fill="#91c0dc"><rect height="8.998875140607421e-2" width="0.11987030033503743" x="-0.5421648776024341" y="0.30989876265466826"/></g><g stroke-opacity="0.0" fill-opacity="1.0" stroke="#000000" stroke-width="0.0" fill="#82b7d6"><rect height="8.998875140607421e-2" width="0.11987030033503743" x="-0.5421648776024341" y="0.21991001124859405"/></g><g stroke-opacity="0.0" fill-opacity="1.0" stroke="#000000" stroke-width="0.0" fill="#5c9fc9"><rect height="8.998875140607426e-2" width="0.11987030033503743" x="-0.5421648776024341" y="0.12992125984251973"/></g><g stroke-opacity="0.0" fill-opacity="1.0" stroke="#000000" stroke-width="0.0" fill="#3b8abe"><rect height="8.998875140607421e-2" width="0.11987030033503743" x="-0.5421648776024341" y="3.9932508436445524e-2"/></g><g stroke-opacity="0.0" fill-opacity="1.0" stroke="#000000" stroke-width="0.0" fill="#71acd0"><rect height="8.998875140607426e-2" width="0.11987030033503743" x="-0.5421648776024341" y="-5.005624296962874e-2"/></g><g stroke-opacity="0.0" fill-opacity="1.0" stroke="#000000" stroke-width="0.0" fill="#7ab2d4"><rect height="8.998875140607421e-2" width="0.11987030033503743" x="-0.5421648776024341" y="-0.14004499437570295"/></g><g stroke-opacity="0.0" fill-opacity="1.0" stroke="#000000" stroke-width="0.0" fill="#4e96c4"><rect height="8.998875140607421e-2" width="0.11987030033503743" x="-0.5421648776024341" y="-0.23003374578177727"/></g><g stroke-opacity="0.0" fill-opacity="1.0" stroke="#000000" stroke-width="0.0" fill="#1f78b4"><rect height="8.998875140607421e-2" width="0.11987030033503743" x="-0.5421648776024341" y="-0.3200224971878515"/></g><g stroke-opacity="0.0" fill-opacity="1.0" stroke="#000000" stroke-width="0.0" fill="#3284bb"><rect height="8.998875140607421e-2" width="0.11987030033503743" x="-0.5421648776024341" y="-0.4100112485939257"/></g><g stroke-opacity="0.0" fill-opacity="1.0" stroke="#000000" stroke-width="0.0" fill="#86bad8"><rect height="8.998875140607421e-2" width="0.11987030033503743" x="-0.5421648776024341" y="-0.4999999999999999"/></g><g stroke-opacity="0.0" fill-opacity="1.0" stroke="#000000" stroke-width="0.0" fill="#80b6d6"><rect height="8.998875140607421e-2" width="0.11987030033503743" x="-0.4222945772673966" y="0.30989876265466826"/></g><g stroke-opacity="0.0" fill-opacity="1.0" stroke="#000000" stroke-width="0.0" fill="#81b6d6"><rect height="8.998875140607421e-2" width="0.11987030033503743" x="-0.4222945772673966" y="0.21991001124859405"/></g><g stroke-opacity="0.0" fill-opacity="1.0" stroke="#000000" stroke-width="0.0" fill="#6da9cf"><rect height="8.998875140607426e-2" width="0.11987030033503743" x="-0.4222945772673966" y="0.12992125984251973"/></g><g stroke-opacity="0.0" fill-opacity="1.0" stroke="#000000" stroke-width="0.0" fill="#3c8bbe"><rect height="8.998875140607421e-2" width="0.11987030033503743" x="-0.4222945772673966" y="3.9932508436445524e-2"/></g><g stroke-opacity="0.0" fill-opacity="1.0" stroke="#000000" stroke-width="0.0" fill="#6fabd0"><rect height="8.998875140607426e-2" width="0.11987030033503743" x="-0.4222945772673966" y="-5.005624296962874e-2"/></g><g stroke-opacity="0.0" fill-opacity="1.0" stroke="#000000" stroke-width="0.0" fill="#72add1"><rect height="8.998875140607421e-2" width="0.11987030033503743" x="-0.4222945772673966" y="-0.14004499437570295"/></g><g stroke-opacity="0.0" fill-opacity="1.0" stroke="#000000" stroke-width="0.0" fill="#3989bd"><rect height="8.998875140607421e-2" width="0.11987030033503743" x="-0.4222945772673966" y="-0.23003374578177727"/></g><g stroke-opacity="0.0" fill-opacity="1.0" stroke="#000000" stroke-width="0.0" fill="#3183ba"><rect height="8.998875140607421e-2" width="0.11987030033503743" x="-0.4222945772673966" y="-0.3200224971878515"/></g><g stroke-opacity="0.0" fill-opacity="1.0" stroke="#000000" stroke-width="0.0" fill="#69a7ce"><rect height="8.998875140607421e-2" width="0.11987030033503743" x="-0.4222945772673966" y="-0.4100112485939257"/></g><g stroke-opacity="0.0" fill-opacity="1.0" stroke="#000000" stroke-width="0.0" fill="#94c2dd"><rect height="8.998875140607421e-2" width="0.11987030033503743" x="-0.4222945772673966" y="-0.4999999999999999"/></g><g stroke-opacity="0.0" fill-opacity="1.0" stroke="#000000" stroke-width="0.0" fill="#87bad8"><rect height="8.998875140607421e-2" width="0.11987030033503754" x="-0.3024242769323592" y="0.30989876265466826"/></g><g stroke-opacity="0.0" fill-opacity="1.0" stroke="#000000" stroke-width="0.0" fill="#71acd1"><rect height="8.998875140607421e-2" width="0.11987030033503754" x="-0.3024242769323592" y="0.21991001124859405"/></g><g stroke-opacity="0.0" fill-opacity="1.0" stroke="#000000" stroke-width="0.0" fill="#5399c6"><rect height="8.998875140607426e-2" width="0.11987030033503754" x="-0.3024242769323592" y="0.12992125984251973"/></g><g stroke-opacity="0.0" fill-opacity="1.0" stroke="#000000" stroke-width="0.0" fill="#60a2cb"><rect height="8.998875140607421e-2" width="0.11987030033503754" x="-0.3024242769323592" y="3.9932508436445524e-2"/></g><g stroke-opacity="0.0" fill-opacity="1.0" stroke="#000000" stroke-width="0.0" fill="#77b0d2"><rect height="8.998875140607426e-2" width="0.11987030033503754" x="-0.3024242769323592" y="-5.005624296962874e-2"/></g><g stroke-opacity="0.0" fill-opacity="1.0" stroke="#000000" stroke-width="0.0" fill="#72add1"><rect height="8.998875140607421e-2" width="0.11987030033503754" x="-0.3024242769323592" y="-0.14004499437570295"/></g><g stroke-opacity="0.0" fill-opacity="1.0" stroke="#000000" stroke-width="0.0" fill="#5ea0ca"><rect height="8.998875140607421e-2" width="0.11987030033503754" x="-0.3024242769323592" y="-0.23003374578177727"/></g><g stroke-opacity="0.0" fill-opacity="1.0" stroke="#000000" stroke-width="0.0" fill="#2179b5"><rect height="8.998875140607421e-2" width="0.11987030033503754" x="-0.3024242769323592" y="-0.3200224971878515"/></g><g stroke-opacity="0.0" fill-opacity="1.0" stroke="#000000" stroke-width="0.0" fill="#72add1"><rect height="8.998875140607421e-2" width="0.11987030033503754" x="-0.3024242769323592" y="-0.4100112485939257"/></g><g stroke-opacity="0.0" fill-opacity="1.0" stroke="#000000" stroke-width="0.0" fill="#95c3dd"><rect height="8.998875140607421e-2" width="0.11987030033503754" x="-0.3024242769323592" y="-0.4999999999999999"/></g><g stroke-opacity="0.0" fill-opacity="1.0" stroke="#000000" stroke-width="0.0" fill="#7ab2d4"><rect height="8.998875140607421e-2" width="0.11987030033503743" x="-0.18255397659732164" y="0.30989876265466826"/></g><g stroke-opacity="0.0" fill-opacity="1.0" stroke="#000000" stroke-width="0.0" fill="#599dc8"><rect height="8.998875140607421e-2" width="0.11987030033503743" x="-0.18255397659732164" y="0.21991001124859405"/></g><g stroke-opacity="0.0" fill-opacity="1.0" stroke="#000000" stroke-width="0.0" fill="#3788bc"><rect height="8.998875140607426e-2" width="0.11987030033503743" x="-0.18255397659732164" y="0.12992125984251973"/></g><g stroke-opacity="0.0" fill-opacity="1.0" stroke="#000000" stroke-width="0.0" fill="#71acd1"><rect height="8.998875140607421e-2" width="0.11987030033503743" x="-0.18255397659732164" y="3.9932508436445524e-2"/></g><g stroke-opacity="0.0" fill-opacity="1.0" stroke="#000000" stroke-width="0.0" fill="#77b0d3"><rect height="8.998875140607426e-2" width="0.11987030033503743" x="-0.18255397659732164" y="-5.005624296962874e-2"/></g><g stroke-opacity="0.0" fill-opacity="1.0" stroke="#000000" stroke-width="0.0" fill="#3586bc"><rect height="8.998875140607421e-2" width="0.11987030033503743" x="-0.18255397659732164" y="-0.14004499437570295"/></g><g stroke-opacity="0.0" fill-opacity="1.0" stroke="#000000" stroke-width="0.0" fill="#6ca9cf"><rect height="8.998875140607421e-2" width="0.11987030033503743" x="-0.18255397659732164" y="-0.23003374578177727"/></g><g stroke-opacity="0.0" fill-opacity="1.0" stroke="#000000" stroke-width="0.0" fill="#75afd2"><rect height="8.998875140607421e-2" width="0.11987030033503743" x="-0.18255397659732164" y="-0.3200224971878515"/></g><g stroke-opacity="0.0" fill-opacity="1.0" stroke="#000000" stroke-width="0.0" fill="#76afd2"><rect height="8.998875140607421e-2" width="0.11987030033503743" x="-0.18255397659732164" y="-0.4100112485939257"/></g><g stroke-opacity="0.0" fill-opacity="1.0" stroke="#000000" stroke-width="0.0" fill="#83b8d7"><rect height="8.998875140607421e-2" width="0.11987030033503743" x="-0.18255397659732164" y="-0.4999999999999999"/></g><g stroke-opacity="0.0" fill-opacity="1.0" stroke="#000000" stroke-width="0.0" fill="#76afd2"><rect height="8.998875140607421e-2" width="0.11987030033503765" x="-6.268367626228422e-2" y="0.30989876265466826"/></g><g stroke-opacity="0.0" fill-opacity="1.0" stroke="#000000" stroke-width="0.0" fill="#3385bb"><rect height="8.998875140607421e-2" width="0.11987030033503765" x="-6.268367626228422e-2" y="0.21991001124859405"/></g><g stroke-opacity="0.0" fill-opacity="1.0" stroke="#000000" stroke-width="0.0" fill="#71acd1"><rect height="8.998875140607426e-2" width="0.11987030033503765" x="-6.268367626228422e-2" y="0.12992125984251973"/></g><g stroke-opacity="0.0" fill-opacity="1.0" stroke="#000000" stroke-width="0.0" fill="#81b7d6"><rect height="8.998875140607421e-2" width="0.11987030033503765" x="-6.268367626228422e-2" y="3.9932508436445524e-2"/></g><g stroke-opacity="0.0" fill-opacity="1.0" stroke="#000000" stroke-width="0.0" fill="#80b6d6"><rect height="8.998875140607426e-2" width="0.11987030033503765" x="-6.268367626228422e-2" y="-5.005624296962874e-2"/></g><g stroke-opacity="0.0" fill-opacity="1.0" stroke="#000000" stroke-width="0.0" fill="#6eabd0"><rect height="8.998875140607421e-2" width="0.11987030033503765" x="-6.268367626228422e-2" y="-0.14004499437570295"/></g><g stroke-opacity="0.0" fill-opacity="1.0" stroke="#000000" stroke-width="0.0" fill="#7eb4d5"><rect height="8.998875140607421e-2" width="0.11987030033503765" x="-6.268367626228422e-2" y="-0.23003374578177727"/></g><g stroke-opacity="0.0" fill-opacity="1.0" stroke="#000000" stroke-width="0.0" fill="#81b6d6"><rect height="8.998875140607421e-2" width="0.11987030033503765" x="-6.268367626228422e-2" y="-0.3200224971878515"/></g><g stroke-opacity="0.0" fill-opacity="1.0" stroke="#000000" stroke-width="0.0" fill="#73aed1"><rect height="8.998875140607421e-2" width="0.11987030033503765" x="-6.268367626228422e-2" y="-0.4100112485939257"/></g><g stroke-opacity="0.0" fill-opacity="1.0" stroke="#000000" stroke-width="0.0" fill="#82b7d6"><rect height="8.998875140607421e-2" width="0.11987030033503765" x="-6.268367626228422e-2" y="-0.4999999999999999"/></g><g stroke-opacity="0.0" fill-opacity="1.0" stroke="#000000" stroke-width="0.0" fill="#8abcd9"><rect height="8.998875140607421e-2" width="0.1198703003350372" x="5.7186624072753434e-2" y="0.30989876265466826"/></g><g stroke-opacity="0.0" fill-opacity="1.0" stroke="#000000" stroke-width="0.0" fill="#6ca9cf"><rect height="8.998875140607421e-2" width="0.1198703003350372" x="5.7186624072753434e-2" y="0.21991001124859405"/></g><g stroke-opacity="0.0" fill-opacity="1.0" stroke="#000000" stroke-width="0.0" fill="#6eabd0"><rect height="8.998875140607426e-2" width="0.1198703003350372" x="5.7186624072753434e-2" y="0.12992125984251973"/></g><g stroke-opacity="0.0" fill-opacity="1.0" stroke="#000000" stroke-width="0.0" fill="#7cb3d4"><rect height="8.998875140607421e-2" width="0.1198703003350372" x="5.7186624072753434e-2" y="3.9932508436445524e-2"/></g><g stroke-opacity="0.0" fill-opacity="1.0" stroke="#000000" stroke-width="0.0" fill="#7fb5d5"><rect height="8.998875140607426e-2" width="0.1198703003350372" x="5.7186624072753434e-2" y="-5.005624296962874e-2"/></g><g stroke-opacity="0.0" fill-opacity="1.0" stroke="#000000" stroke-width="0.0" fill="#7cb3d4"><rect height="8.998875140607421e-2" width="0.1198703003350372" x="5.7186624072753434e-2" y="-0.14004499437570295"/></g><g stroke-opacity="0.0" fill-opacity="1.0" stroke="#000000" stroke-width="0.0" fill="#81b6d6"><rect height="8.998875140607421e-2" width="0.1198703003350372" x="5.7186624072753434e-2" y="-0.23003374578177727"/></g><g stroke-opacity="0.0" fill-opacity="1.0" stroke="#000000" stroke-width="0.0" fill="#7db4d5"><rect height="8.998875140607421e-2" width="0.1198703003350372" x="5.7186624072753434e-2" y="-0.3200224971878515"/></g><g stroke-opacity="0.0" fill-opacity="1.0" stroke="#000000" stroke-width="0.0" fill="#69a7ce"><rect height="8.998875140607421e-2" width="0.1198703003350372" x="5.7186624072753434e-2" y="-0.4100112485939257"/></g><g stroke-opacity="0.0" fill-opacity="1.0" stroke="#000000" stroke-width="0.0" fill="#83b8d7"><rect height="8.998875140607421e-2" width="0.1198703003350372" x="5.7186624072753434e-2" y="-0.4999999999999999"/></g><g stroke-opacity="0.0" fill-opacity="1.0" stroke="#000000" stroke-width="0.0" fill="#8abcd9"><rect height="8.998875140607421e-2" width="0.11987030033503787" x="0.17705692440779064" y="0.30989876265466826"/></g><g stroke-opacity="0.0" fill-opacity="1.0" stroke="#000000" stroke-width="0.0" fill="#66a5cd"><rect height="8.998875140607421e-2" width="0.11987030033503787" x="0.17705692440779064" y="0.21991001124859405"/></g><g stroke-opacity="0.0" fill-opacity="1.0" stroke="#000000" stroke-width="0.0" fill="#4f96c5"><rect height="8.998875140607426e-2" width="0.11987030033503787" x="0.17705692440779064" y="0.12992125984251973"/></g><g stroke-opacity="0.0" fill-opacity="1.0" stroke="#000000" stroke-width="0.0" fill="#5b9fc9"><rect height="8.998875140607421e-2" width="0.11987030033503787" x="0.17705692440779064" y="3.9932508436445524e-2"/></g><g stroke-opacity="0.0" fill-opacity="1.0" stroke="#000000" stroke-width="0.0" fill="#5ea0ca"><rect height="8.998875140607426e-2" width="0.11987030033503787" x="0.17705692440779064" y="-5.005624296962874e-2"/></g><g stroke-opacity="0.0" fill-opacity="1.0" stroke="#000000" stroke-width="0.0" fill="#549ac6"><rect height="8.998875140607421e-2" width="0.11987030033503787" x="0.17705692440779064" y="-0.14004499437570295"/></g><g stroke-opacity="0.0" fill-opacity="1.0" stroke="#000000" stroke-width="0.0" fill="#71acd0"><rect height="8.998875140607421e-2" width="0.11987030033503787" x="0.17705692440779064" y="-0.23003374578177727"/></g><g stroke-opacity="0.0" fill-opacity="1.0" stroke="#000000" stroke-width="0.0" fill="#6fabd0"><rect height="8.998875140607421e-2" width="0.11987030033503787" x="0.17705692440779064" y="-0.3200224971878515"/></g><g stroke-opacity="0.0" fill-opacity="1.0" stroke="#000000" stroke-width="0.0" fill="#4c95c4"><rect height="8.998875140607421e-2" width="0.11987030033503787" x="0.17705692440779064" y="-0.4100112485939257"/></g><g stroke-opacity="0.0" fill-opacity="1.0" stroke="#000000" stroke-width="0.0" fill="#4a93c3"><rect height="8.998875140607421e-2" width="0.11987030033503787" x="0.17705692440779064" y="-0.4999999999999999"/></g><g stroke-opacity="0.0" fill-opacity="1.0" stroke="#000000" stroke-width="0.0" fill="#73aed1"><rect height="8.998875140607421e-2" width="0.11987030033503743" x="0.2969272247428285" y="0.30989876265466826"/></g><g stroke-opacity="0.0" fill-opacity="1.0" stroke="#000000" stroke-width="0.0" fill="#5198c5"><rect height="8.998875140607421e-2" width="0.11987030033503743" x="0.2969272247428285" y="0.21991001124859405"/></g><g stroke-opacity="0.0" fill-opacity="1.0" stroke="#000000" stroke-width="0.0" fill="#438fc0"><rect height="8.998875140607426e-2" width="0.11987030033503743" x="0.2969272247428285" y="0.12992125984251973"/></g><g stroke-opacity="0.0" fill-opacity="1.0" stroke="#000000" stroke-width="0.0" fill="#3385bb"><rect height="8.998875140607421e-2" width="0.11987030033503743" x="0.2969272247428285" y="3.9932508436445524e-2"/></g><g stroke-opacity="0.0" fill-opacity="1.0" stroke="#000000" stroke-width="0.0" fill="#2c80b8"><rect height="8.998875140607426e-2" width="0.11987030033503743" x="0.2969272247428285" y="-5.005624296962874e-2"/></g><g stroke-opacity="0.0" fill-opacity="1.0" stroke="#000000" stroke-width="0.0" fill="#5fa1ca"><rect height="8.998875140607421e-2" width="0.11987030033503743" x="0.2969272247428285" y="-0.14004499437570295"/></g><g stroke-opacity="0.0" fill-opacity="1.0" stroke="#000000" stroke-width="0.0" fill="#78b1d3"><rect height="8.998875140607421e-2" width="0.11987030033503743" x="0.2969272247428285" y="-0.23003374578177727"/></g><g stroke-opacity="0.0" fill-opacity="1.0" stroke="#000000" stroke-width="0.0" fill="#68a6cd"><rect height="8.998875140607421e-2" width="0.11987030033503743" x="0.2969272247428285" y="-0.3200224971878515"/></g><g stroke-opacity="0.0" fill-opacity="1.0" stroke="#000000" stroke-width="0.0" fill="#4f96c5"><rect height="8.998875140607421e-2" width="0.11987030033503743" x="0.2969272247428285" y="-0.4100112485939257"/></g><g stroke-opacity="0.0" fill-opacity="1.0" stroke="#000000" stroke-width="0.0" fill="#4993c3"><rect height="8.998875140607421e-2" width="0.11987030033503743" x="0.2969272247428285" y="-0.4999999999999999"/></g><g stroke-opacity="0.0" fill-opacity="1.0" stroke="#000000" stroke-width="0.0" fill="#67a6cd"><rect height="8.998875140607421e-2" width="0.11987030033503743" x="0.41679752507786594" y="0.30989876265466826"/></g><g stroke-opacity="0.0" fill-opacity="1.0" stroke="#000000" stroke-width="0.0" fill="#4d95c4"><rect height="8.998875140607421e-2" width="0.11987030033503743" x="0.41679752507786594" y="0.21991001124859405"/></g><g stroke-opacity="0.0" fill-opacity="1.0" stroke="#000000" stroke-width="0.0" fill="#5298c6"><rect height="8.998875140607426e-2" width="0.11987030033503743" x="0.41679752507786594" y="0.12992125984251973"/></g><g stroke-opacity="0.0" fill-opacity="1.0" stroke="#000000" stroke-width="0.0" fill="#69a7ce"><rect height="8.998875140607421e-2" width="0.11987030033503743" x="0.41679752507786594" y="3.9932508436445524e-2"/></g><g stroke-opacity="0.0" fill-opacity="1.0" stroke="#000000" stroke-width="0.0" fill="#4b94c3"><rect height="8.998875140607426e-2" width="0.11987030033503743" x="0.41679752507786594" y="-5.005624296962874e-2"/></g><g stroke-opacity="0.0" fill-opacity="1.0" stroke="#000000" stroke-width="0.0" fill="#70acd0"><rect height="8.998875140607421e-2" width="0.11987030033503743" x="0.41679752507786594" y="-0.14004499437570295"/></g><g stroke-opacity="0.0" fill-opacity="1.0" stroke="#000000" stroke-width="0.0" fill="#90c0db"><rect height="8.998875140607421e-2" width="0.11987030033503743" x="0.41679752507786594" y="-0.23003374578177727"/></g><g stroke-opacity="0.0" fill-opacity="1.0" stroke="#000000" stroke-width="0.0" fill="#94c3dd"><rect height="8.998875140607421e-2" width="0.11987030033503743" x="0.41679752507786594" y="-0.3200224971878515"/></g><g stroke-opacity="0.0" fill-opacity="1.0" stroke="#000000" stroke-width="0.0" fill="#96c4dd"><rect height="8.998875140607421e-2" width="0.11987030033503743" x="0.41679752507786594" y="-0.4100112485939257"/></g><g stroke-opacity="0.0" fill-opacity="1.0" stroke="#000000" stroke-width="0.0" fill="#a1cbe1"><rect height="8.998875140607421e-2" width="0.11987030033503743" x="0.41679752507786594" y="-0.4999999999999999"/></g><g stroke-opacity="1.0" stroke="#000000" stroke-width="5.0e-3" fill="none"><polyline points="0.45378039264112324,8.187585327896596e-3
0.4367507132293935,9.233656207299767e-4"/></g><g stroke-opacity="1.0" stroke="#000000" stroke-width="5.0e-3" fill="none"><polyline points="0.39937949235109205,-0.3669957938265914
0.3727955402442562,-0.37115041576585717"/></g><g stroke-opacity="1.0" stroke="#000000" stroke-width="5.0e-3" fill="none"><polyline points="0.23716634011827198,4.023607343982799e-2
0.2585807102337889,4.107902080338355e-2"/></g><g stroke-opacity="1.0" stroke="#000000" stroke-width="5.0e-3" fill="none"><polyline points="-9.580733099865935e-2,-0.1853189567480571
-0.10014768392308526,-0.17611679257511836"/></g><g stroke-opacity="1.0" stroke="#000000" stroke-width="5.0e-3" fill="none"><polyline points="1.134035061059624e-2,0.2928732643298654
-2.2925002871331257e-3,0.2785378962409226"/></g><g stroke-opacity="1.0" stroke="#000000" stroke-width="5.0e-3" fill="none"><polyline points="-8.396510781875421e-2,9.783397729242871e-2
-9.244721941888112e-2,0.10500214814718223"/></g><g stroke-opacity="1.0" stroke="#000000" stroke-width="5.0e-3" fill="none"><polyline points="0.40387314030533594,0.25208584510649557
0.41020542422456674,0.24451407704227995"/></g><g stroke-opacity="1.0" stroke="#000000" stroke-width="5.0e-3" fill="none"><polyline points="-0.314243279226572,0.17136086826601954
-0.31024531060227567,0.1632777130513094"/></g><g stroke-opacity="1.0" stroke="#000000" stroke-width="5.0e-3" fill="none"><polyline points="-0.5906603560554612,-1.5788537882581166e-2
-0.582210363734595,-1.0305698814869424e-2"/></g><g stroke-opacity="1.0" stroke="#000000" stroke-width="5.0e-3" fill="none"><polyline points="0.1555535380218096,9.101051976701702e-2
0.1637885372203487,9.340183430423432e-2"/></g><g stroke-opacity="1.0" fill-opacity="1.0" stroke="#808080" stroke-width="1.3999999999999999e-2" fill="#ffffff"><rect height="0.45606299212598433" width="0.1384921514920856" x="0.5947260064610091" y="-0.47462317210348703"/></g><g fill-opacity="1.0" font-size="3.4999999999999996e-2" stroke="none" stroke-width="0.0" fill="#808080" text-anchor="start"><text x="0.6912635528358315" y="-0.10127989838813678">2</text></g><g fill-opacity="1.0" font-size="3.4999999999999996e-2" stroke="none" stroke-width="0.0" fill="#808080" text-anchor="start"><text x="0.6912635528358315" y="-0.18905665506968128">3</text></g><g fill-opacity="1.0" font-size="3.4999999999999996e-2" stroke="none" stroke-width="0.0" fill="#808080" text-anchor="start"><text x="0.6912635528358315" y="-0.2768334117512258">4</text></g><g stroke-opacity="1.0" fill-opacity="1.0" stroke="#808080" stroke-width="5.0e-3" fill="#000000"><g transform="rotate(-90.0, 0.6562594272996618, -0.11041375665585329)"><polyline points="0.6562594272996618,-9.99137566558533e-2
0.6562594272996618,-0.12091375665585329"/></g><g transform="rotate(-90.0, 0.6562594272996618, -0.1981905133373978)"><polyline points="0.6562594272996618,-0.18769051333739778
0.6562594272996618,-0.2086905133373978"/></g><g transform="rotate(-90.0, 0.6562594272996618, -0.2859672700189423)"><polyline points="0.6562594272996618,-0.2754672700189423
0.6562594272996618,-0.2964672700189423"/></g></g><g stroke-opacity="0.0" stroke="#000000" stroke-width="0.0" fill="url(#pixel)"><rect height="0.3149606299212597" width="2.7969736744842155e-2" x="0.6226957432058513" y="-0.36501687289088847"/></g><g fill-opacity="1.0" font-size="5.5999999999999994e-2" stroke="none" stroke-width="0.0" fill="#333333" text-anchor="start"><text x="0.6226957432058513" y="-0.3965129358830145"></text></g></svg>