<svg xmlns="http://www.w3.org/2000/svg" height="300.0" viewBox="-0.87 -0.5532016310461191 1.6399999999999997 1.099451631046119" width="450.0" xmlns:xlink="http://www.w3.org/1999/xlink"><defs><linearGradient x2="6.123233995736766e-17" y1="1.0" id="pixel" y2="0.0" x1="0.0"><stop stop-opacity="1.0" offset="0" stop-color="#a6cee3"/><stop stop-opacity="1.0" offset="1" stop-color="#1f78b4"/></linearGradient></defs><g stroke-opacity="0.0" fill-opacity="2.5e-2" stroke="#000000" stroke-width="0.0" fill="#808080"><rect height="0.8998875140607423" width="1.1578369804126143" x="-0.6746827044241595" y="-0.4999999999999999"/></g><g stroke-opacity="5.0e-2" stroke="#808080" stroke-width="5.0e-3" fill="none"><polyline points="-0.6746827044241595,0.39988751406074247
0.48315427598845484,0.39988751406074247"/></g><g stroke-opacity="5.0e-2" stroke="#808080" stroke-width="5.0e-3" fill="none"><polyline points="-0.6746827044241595,0.30989876265466815
0.48315427598845484,0.30989876265466815"/></g><g stroke-opacity="5.0e-2" stroke="#808080" stroke-width="5.0e-3" fill="none"><polyline points="-0.6746827044241595,0.21991001124859383
0.48315427598845484,0.21991001124859383"/></g><g stroke-opacity="5.0e-2" stroke="#808080" stroke-width="5.0e-3" fill="none"><polyline points="-0.6746827044241595,0.12992125984251945
0.48315427598845484,0.12992125984251945"/></g><g stroke-opacity="5.0e-2" stroke="#808080" stroke-width="5.0e-3" fill="none"><polyline points="-0.6746827044241595,3.9932508436445135e-2
0.48315427598845484,3.9932508436445135e-2"/></g><g stroke-opacity="5.0e-2" stroke="#808080" stroke-width="5.0e-3" fill="none"><polyline points="-0.6746827044241595,-5.005624296962918e-2
0.48315427598845484,-5.005624296962918e-2"/></g><g stroke-opacity="5.0e-2" stroke="#808080" stroke-width="5.0e-3" fill="none"><polyline points="-0.6746827044241595,-0.1400449943757025
0.48315427598845484,-0.1400449943757025"/></g><g stroke-opacity="5.0e-2" stroke="#808080" stroke-width="5.0e-3" fill="none"><polyline points="-0.6746827044241595,-0.23003374578177682
0.48315427598845484,-0.23003374578177682"/></g><g stroke-opacity="5.0e-2" stroke="#808080" stroke-width="5.0e-3" fill="none"><polyline points="-0.6746827044241595,-0.32002249718785114
0.48315427598845484,-0.32002249718785114"/></g><g stroke-opacity="5.0e-2" stroke="#808080" stroke-width="5.0e-3" fill="none"><polyline points="-0.6746827044241595,-0.41001124859392546
0.48315427598845484,-0.41001124859392546"/></g><g stroke-opacity="5.0e-2" stroke="#808080" stroke-width="5.0e-3" fill="none"><polyline points="-0.6746827044241595,-0.4999999999999999
0.48315427598845484,-0.4999999999999999"/></g><g fill-opacity="1.0" font-size="5.0e-2" stroke="none" stroke-width="0.0" fill="#808080" text-anchor="end"><text x="-0.75" y="0.4129358830146232">0.9</text></g><g fill-opacity="1.0" font-size="5.0e-2" stroke="none" stroke-width="0.0" fill="#808080" text-anchor="end"><text x="-0.75" y="0.32294713160854893">0.91</text></g><g fill-opacity="1.0" font-size="5.0e-2" stroke="none" stroke-width="0.0" fill="#808080" text-anchor="end"><text x="-0.75" y="0.2329583802024746">0.92</text></g><g fill-opacity="1.0" font-size="5.0e-2" stroke="none" stroke-width="0.0" fill="#808080" text-anchor="end"><text x="-0.75" y="0.14296962879640024">0.93</text></g><g fill-opacity="1.0" font-size="5.0e-2" stroke="none" stroke-width="0.0" fill="#808080" text-anchor="end"><text x="-0.75" y="5.298087739032592e-2">0.94</text></g><g fill-opacity="1.0" font-size="5.0e-2" stroke="none" stroke-width="0.0" fill="#808080" text-anchor="end"><text x="-0.75" y="-3.7007874015748454e-2">0.95</text></g><g fill-opacity="1.0" font-size="5.0e-2" stroke="none" stroke-width="0.0" fill="#808080" text-anchor="end"><text x="-0.75" y="-0.12699662542182177">0.96</text></g><g fill-opacity="1.0" font-size="5.0e-2" stroke="none" stroke-width="0.0" fill="#808080" text-anchor="end"><text x="-0.75" y="-0.2169853768278961">0.97</text></g><g fill-opacity="1.0" font-size="5.0e-2" stroke="none" stroke-width="0.0" fill="#808080" text-anchor="end"><text x="-0.75" y="-0.3069741282339704">0.98</text></g><g fill-opacity="1.0" font-size="5.0e-2" stroke="none" stroke-width="0.0" fill="#808080" text-anchor="end"><text x="-0.75" y="-0.39696287964004473">0.99</text></g><g fill-opacity="1.0" font-size="5.0e-2" stroke="none" stroke-width="0.0" fill="#808080" text-anchor="end"><text x="-0.75" y="-0.48695163104611905">1</text></g><g stroke-opacity="1.0" fill-opacity="1.0" stroke="#808080" stroke-width="5.0e-3" fill="#808080"><g transform="rotate(-90.0, -0.7248556402420394, 0.39988751406074247)"><polyline points="-0.7248556402420394,0.4148875140607425
-0.7248556402420394,0.38488751406074245"/></g><g transform="rotate(-90.0, -0.7248556402420394, 0.30989876265466815)"><polyline points="-0.7248556402420394,0.32489876265466816
-0.7248556402420394,0.29489876265466813"/></g><g transform="rotate(-90.0, -0.7248556402420394, 0.21991001124859383)"><polyline points="-0.7248556402420394,0.23491001124859384
-0.7248556402420394,0.20491001124859382"/></g><g transform="rotate(-90.0, -0.7248556402420394, 0.12992125984251945)"><polyline points="-0.7248556402420394,0.14492125984251947
-0.7248556402420394,0.11492125984251945"/></g><g transform="rotate(-90.0, -0.7248556402420394, 3.9932508436445135e-2)"><polyline points="-0.7248556402420394,5.4932508436445135e-2
-0.7248556402420394,2.4932508436445136e-2"/></g><g transform="rotate(-90.0, -0.7248556402420394, -5.005624296962918e-2)"><polyline points="-0.7248556402420394,-3.5056242969629184e-2
-0.7248556402420394,-6.505624296962918e-2"/></g><g transform="rotate(-90.0, -0.7248556402420394, -0.1400449943757025)"><polyline points="-0.7248556402420394,-0.1250449943757025
-0.7248556402420394,-0.15504499437570252"/></g><g transform="rotate(-90.0, -0.7248556402420394, -0.23003374578177682)"><polyline points="-0.7248556402420394,-0.2150337457817768
-0.7248556402420394,-0.24503374578177683"/></g><g transform="rotate(-90.0, -0.7248556402420394, -0.32002249718785114)"><polyline points="-0.7248556402420394,-0.3050224971878511
-0.7248556402420394,-0.33502249718785115"/></g><g transform="rotate(-90.0, -0.7248556402420394, -0.41001124859392546)"><polyline points="-0.7248556402420394,-0.39501124859392545
-0.7248556402420394,-0.4250112485939255"/></g><g transform="rotate(-90.0, -0.7248556402420394, -0.4999999999999999)"><polyline points="-0.7248556402420394,-0.4849999999999999
-0.7248556402420394,-0.5149999999999999"/></g></g><g stroke-opacity="1.0" fill-opacity="1.0" stroke="#808080" stroke-width="0.0" fill="#808080"><rect height="0.8998875140607423" width="3.8594566013753218e-3" x="-0.7152069987386009" y="-0.4999999999999999"/></g><g stroke-opacity="5.0e-2" stroke="#808080" stroke-width="5.0e-3" fill="none"><polyline points="-0.6746827044241595,0.39988751406074247
-0.6746827044241595,-0.4999999999999999"/></g><g stroke-opacity="5.0e-2" stroke="#808080" stroke-width="5.0e-3" fill="none"><polyline points="-0.5588990063828979,0.39988751406074247
-0.5588990063828979,-0.4999999999999999"/></g><g stroke-opacity="5.0e-2" stroke="#808080" stroke-width="5.0e-3" fill="none"><polyline points="-0.4431153083416363,0.39988751406074247
-0.4431153083416363,-0.4999999999999999"/></g><g stroke-opacity="5.0e-2" stroke="#808080" stroke-width="5.0e-3" fill="none"><polyline points="-0.3273316103003747,0.39988751406074247
-0.3273316103003747,-0.4999999999999999"/></g><g stroke-opacity="5.0e-2" stroke="#808080" stroke-width="5.0e-3" fill="none"><polyline points="-0.21154791225911318,0.39988751406074247
-0.21154791225911318,-0.4999999999999999"/></g><g stroke-opacity="5.0e-2" stroke="#808080" stroke-width="5.0e-3" fill="none"><polyline points="-9.576421421785153e-2,0.39988751406074247
-9.576421421785153e-2,-0.4999999999999999"/></g><g stroke-opacity="5.0e-2" stroke="#808080" stroke-width="5.0e-3" fill="none"><polyline points="2.001948382340868e-2,0.39988751406074247
2.001948382340868e-2,-0.4999999999999999"/></g><g stroke-opacity="5.0e-2" stroke="#808080" stroke-width="5.0e-3" fill="none"><polyline points="0.1358031818646701,0.39988751406074247
0.1358031818646701,-0.4999999999999999"/></g><g stroke-opacity="5.0e-2" stroke="#808080" stroke-width="5.0e-3" fill="none"><polyline points="0.25158687990593176,0.39988751406074247
0.25158687990593176,-0.4999999999999999"/></g><g stroke-opacity="5.0e-2" stroke="#808080" stroke-width="5.0e-3" fill="none"><polyline points="0.3673705779471932,0.39988751406074247
0.3673705779471932,-0.4999999999999999"/></g><g stroke-opacity="5.0e-2" stroke="#808080" stroke-width="5.0e-3" fill="none"><polyline points="0.48315427598845484,0.39988751406074247
0.48315427598845484,-0.4999999999999999"/></g><g fill-opacity="1.0" font-size="5.0e-2" stroke="none" stroke-width="0.0" fill="#808080" text-anchor="middle"><text x="-0.6746827044241595" y="0.5">0.9</text></g><g fill-opacity="1.0" font-size="5.0e-2" stroke="none" stroke-width="0.0" fill="#808080" text-anchor="middle"><text x="-0.5588990063828979" y="0.5">0.91</text></g><g fill-opacity="1.0" font-size="5.0e-2" stroke="none" stroke-width="0.0" fill="#808080" text-anchor="middle"><text x="-0.4431153083416363" y="0.5">0.92</text></g><g fill-opacity="1.0" font-size="5.0e-2" stroke="none" stroke-width="0.0" fill="#808080" text-anchor="middle"><text x="-0.3273316103003747" y="0.5">0.93</text></g><g fill-opacity="1.0" font-size="5.0e-2" stroke="none" stroke-width="0.0" fill="#808080" text-anchor="middle"><text x="-0.21154791225911318" y="0.5">0.94</text></g><g fill-opacity="1.0" font-size="5.0e-2" stroke="none" stroke-width="0.0" fill="#808080" text-anchor="middle"><text x="-9.576421421785153e-2" y="0.5">0.95</text></g><g fill-opacity="1.0" font-size="5.0e-2" stroke="none" stroke-width="0.0" fill="#808080" text-anchor="middle"><text x="2.001948382340868e-2" y="0.5">0.96</text></g><g fill-opacity="1.0" font-size="5.0e-2" stroke="none" stroke-width="0.0" fill="#808080" text-anchor="middle"><text x="0.1358031818646701" y="0.5">0.97</text></g><g fill-opacity="1.0" font-size="5.0e-2" stroke="none" stroke-width="0.0" fill="#808080" text-anchor="middle"><text x="0.25158687990593176" y="0.5">0.98</text></g><g fill-opacity="1.0" font-size="5.0e-2" stroke="none" stroke-width="0.0" fill="#808080" text-anchor="middle"><text x="0.3673705779471932" y="0.5">0.99</text></g><g fill-opacity="1.0" font-size="5.0e-2" stroke="none" stroke-width="0.0" fill="#808080" text-anchor="middle"><text x="0.48315427598845484" y="0.5">1</text></g><g stroke-opacity="1.0" fill-opacity="1.0" stroke="#808080" stroke-width="5.0e-3" fill="#808080"><polyline points="-0.6746827044241595,0.4396344206974129
-0.6746827044241595,0.40963442069741285"/><polyline points="-0.5588990063828979,0.4396344206974129
-0.5588990063828979,0.40963442069741285"/><polyline points="-0.4431153083416363,0.4396344206974129
-0.4431153083416363,0.40963442069741285"/><polyline points="-0.3273316103003747,0.4396344206974129
-0.3273316103003747,0.40963442069741285"/><polyline points="-0.21154791225911318,0.4396344206974129
-0.21154791225911318,0.40963442069741285"/><polyline points="-9.576421421785153e-2,0.4396344206974129
-9.576421421785153e-2,0.40963442069741285"/><polyline points="2.001948382340868e-2,0.4396344206974129
2.001948382340868e-2,0.40963442069741285"/><polyline points="0.1358031818646701,0.4396344206974129
0.1358031818646701,0.40963442069741285"/><polyline points="0.25158687990593176,0.4396344206974129
0.25158687990593176,0.40963442069741285"/><polyline points="0.3673705779471932,0.4396344206974129
0.3673705779471932,0.40963442069741285"/><polyline points="0.48315427598845484,0.4396344206974129
0.48315427598845484,0.40963442069741285"/></g><g stroke-opacity="1.0" fill-opacity="1.0" stroke="#808080" stroke-width="0.0" fill="#808080"><rect height="4.499437570303688e-3" width="1.1578369804126143" x="-0.6746827044241595" y="0.4088863892013499"/></g><g stroke-opacity="0.0" fill-opacity="1.0" stroke="#000000" stroke-width="0.0" fill="#1f78b4"><rect height="0.44994375703037065" width="0.5789184902063065" x="-0.6746827044241595" y="-5.0056242969628184e-2"/></g><g stroke-opacity="0.0" fill-opacity="1.0" stroke="#000000" stroke-width="0.0" fill="#a6cee3"><rect height="0.4499437570303717" width="0.5789184902063065" x="-0.6746827044241595" y="-0.4999999999999999"/></g><g stroke-opacity="0.0" fill-opacity="1.0" stroke="#000000" stroke-width="0.0" fill="#1f78b4"><rect height="0.44994375703037065" width="0.5789184902063078" x="-9.576421421785297e-2" y="-5.0056242969628184e-2"/></g><g stroke-opacity="0.0" fill-opacity="1.0" stroke="#000000" stroke-width="0.0" fill="#a6cee3"><rect height="0.4499437570303717" width="0.5789184902063078" x="-9.576421421785297e-2" y="-0.4999999999999999"/></g><g stroke-opacity="1.0" fill-opacity="1.0" stroke="#808080" stroke-width="1.3999999999999999e-2" fill="#ffffff"><rect height="0.45606299212598433" width="0.174294989846413" x="0.5594952924278103" y="-0.47462317210348703"/></g><g fill-opacity="1.0" font-size="3.4999999999999996e-2" stroke="none" stroke-width="0.0" fill="#808080" text-anchor="start"><text x="0.6527416936453401" y="-8.70373045787124e-2">0.4</text></g><g fill-opacity="1.0" font-size="3.4999999999999996e-2" stroke="none" stroke-width="0.0" fill="#808080" text-anchor="start"><text x="0.6527416936453401" y="-0.1593231128190996">0.41</text></g><g fill-opacity="1.0" font-size="3.4999999999999996e-2" stroke="none" stroke-width="0.0" fill="#808080" text-anchor="start"><text x="0.6527416936453401" y="-0.23160892105948672">0.42</text></g><g fill-opacity="1.0" font-size="3.4999999999999996e-2" stroke="none" stroke-width="0.0" fill="#808080" text-anchor="start"><text x="0.6527416936453401" y="-0.3038947292998735">0.43</text></g><g stroke-opacity="1.0" fill-opacity="1.0" stroke="#808080" stroke-width="5.0e-3" fill="#000000"><g transform="rotate(-90.0, 0.6189309240889911, -9.61711628464289e-2)"><polyline points="0.6189309240889911,-8.567116284642891e-2
0.6189309240889911,-0.1066711628464289"/></g><g transform="rotate(-90.0, 0.6189309240889911, -0.16845697108681612)"><polyline points="0.6189309240889911,-0.1579569710868161
0.6189309240889911,-0.17895697108681613"/></g><g transform="rotate(-90.0, 0.6189309240889911, -0.24074277932720334)"><polyline points="0.6189309240889911,-0.23024277932720333
0.6189309240889911,-0.25124277932720335"/></g><g transform="rotate(-90.0, 0.6189309240889911, -0.3130285875675901)"><polyline points="0.6189309240889911,-0.3025285875675901
0.6189309240889911,-0.3235285875675901"/></g></g><g stroke-opacity="0.0" stroke="#000000" stroke-width="0.0" fill="url(#pixel)"><rect height="0.3149606299212597" width="2.7016196209627585e-2" x="0.5865114886374381" y="-0.36501687289088847"/></g><g fill-opacity="1.0" font-size="5.5999999999999994e-2" stroke="none" stroke-width="0.0" fill="#333333" text-anchor="start"><text x="0.5865114886374381" y="-0.3965129358830145"></text></g></svg>