<svg xmlns="http://www.w3.org/2000/svg" height="300.0" viewBox="-0.87 -0.5531278280542987 1.642575 1.1470082951920655" width="450.0" xmlns:xlink="http://www.w3.org/1999/xlink"><g stroke-opacity="0.0" fill-opacity="2.5e-2" stroke="#000000" stroke-width="0.0" fill="#808080"><rect height="0.9049773755656109" width="1.3596403846928595" x="-0.6096403846928595" y="-0.5"/></g><g stroke-opacity="5.0e-2" stroke="#808080" stroke-width="5.0e-3" fill="none"><polyline points="-0.6096403846928595,0.40497737556561086
0.75,0.40497737556561086"/></g><g stroke-opacity="5.0e-2" stroke="#808080" stroke-width="5.0e-3" fill="none"><polyline points="-0.6096403846928595,0.3144796380090498
0.75,0.3144796380090498"/></g><g stroke-opacity="5.0e-2" stroke="#808080" stroke-width="5.0e-3" fill="none"><polyline points="-0.6096403846928595,0.22398190045248867
0.75,0.22398190045248867"/></g><g stroke-opacity="5.0e-2" stroke="#808080" stroke-width="5.0e-3" fill="none"><polyline points="-0.6096403846928595,0.13348416289592757
0.75,0.13348416289592757"/></g><g stroke-opacity="5.0e-2" stroke="#808080" stroke-width="5.0e-3" fill="none"><polyline points="-0.6096403846928595,4.298642533936653e-2
0.75,4.298642533936653e-2"/></g><g stroke-opacity="5.0e-2" stroke="#808080" stroke-width="5.0e-3" fill="none"><polyline points="-0.6096403846928595,-4.751131221719451e-2
0.75,-4.751131221719451e-2"/></g><g stroke-opacity="5.0e-2" stroke="#808080" stroke-width="5.0e-3" fill="none"><polyline points="-0.6096403846928595,-0.13800904977375572
0.75,-0.13800904977375572"/></g><g stroke-opacity="5.0e-2" stroke="#808080" stroke-width="5.0e-3" fill="none"><polyline points="-0.6096403846928595,-0.22850678733031682
0.75,-0.22850678733031682"/></g><g stroke-opacity="5.0e-2" stroke="#808080" stroke-width="5.0e-3" fill="none"><polyline points="-0.6096403846928595,-0.3190045248868778
0.75,-0.3190045248868778"/></g><g stroke-opacity="5.0e-2" stroke="#808080" stroke-width="5.0e-3" fill="none"><polyline points="-0.6096403846928595,-0.4095022624434388
0.75,-0.4095022624434388"/></g><g stroke-opacity="5.0e-2" stroke="#808080" stroke-width="5.0e-3" fill="none"><polyline points="-0.6096403846928595,-0.5
0.75,-0.5"/></g><g fill-opacity="1.0" font-size="5.0e-2" stroke="none" stroke-width="0.0" fill="#808080" text-anchor="end"><text x="-0.75" y="0.4180995475113122">-0.5</text></g><g fill-opacity="1.0" font-size="5.0e-2" stroke="none" stroke-width="0.0" fill="#808080" text-anchor="end"><text x="-0.75" y="0.3276018099547512">-0.4</text></g><g fill-opacity="1.0" font-size="5.0e-2" stroke="none" stroke-width="0.0" fill="#808080" text-anchor="end"><text x="-0.75" y="0.23710407239819004">-0.3</text></g><g fill-opacity="1.0" font-size="5.0e-2" stroke="none" stroke-width="0.0" fill="#808080" text-anchor="end"><text x="-0.75" y="0.14660633484162894">-0.2</text></g><g fill-opacity="1.0" font-size="5.0e-2" stroke="none" stroke-width="0.0" fill="#808080" text-anchor="end"><text x="-0.75" y="5.6108597285067896e-2">-0.1</text></g><g fill-opacity="1.0" font-size="5.0e-2" stroke="none" stroke-width="0.0" fill="#808080" text-anchor="end"><text x="-0.75" y="-3.43891402714932e-2">0</text></g><g fill-opacity="1.0" font-size="5.0e-2" stroke="none" stroke-width="0.0" fill="#808080" text-anchor="end"><text x="-0.75" y="-0.12488687782805441">0.1</text></g><g fill-opacity="1.0" font-size="5.0e-2" stroke="none" stroke-width="0.0" fill="#808080" text-anchor="end"><text x="-0.75" y="-0.2153846153846154">0.2</text></g><g fill-opacity="1.0" font-size="5.0e-2" stroke="none" stroke-width="0.0" fill="#808080" text-anchor="end"><text x="-0.75" y="-0.3058823529411765">0.3</text></g><g fill-opacity="1.0" font-size="5.0e-2" stroke="none" stroke-width="0.0" fill="#808080" text-anchor="end"><text x="-0.75" y="-0.3963800904977375">0.4</text></g><g fill-opacity="1.0" font-size="5.0e-2" stroke="none" stroke-width="0.0" fill="#808080" text-anchor="end"><text x="-0.75" y="-0.4868778280542987">0.5</text></g><g stroke-opacity="1.0" fill-opacity="1.0" stroke="#808080" stroke-width="5.0e-3" fill="#808080"><g transform="rotate(-90.0, -0.7057097144686301, 0.40497737556561086)"><polyline points="-0.7057097144686301,0.4199773755656109
-0.7057097144686301,0.38997737556561085"/></g><g transform="rotate(-90.0, -0.7057097144686301, 0.3144796380090498)"><polyline points="-0.7057097144686301,0.32947963800904984
-0.7057097144686301,0.2994796380090498"/></g><g transform="rotate(-90.0, -0.7057097144686301, 0.22398190045248867)"><polyline points="-0.7057097144686301,0.23898190045248868
-0.7057097144686301,0.20898190045248866"/></g><g transform="rotate(-90.0, -0.7057097144686301, 0.13348416289592757)"><polyline points="-0.7057097144686301,0.14848416289592758
-0.7057097144686301,0.11848416289592757"/></g><g transform="rotate(-90.0, -0.7057097144686301, 4.298642533936653e-2)"><polyline points="-0.7057097144686301,5.798642533936653e-2
-0.7057097144686301,2.798642533936653e-2"/></g><g transform="rotate(-90.0, -0.7057097144686301, -4.751131221719451e-2)"><polyline points="-0.7057097144686301,-3.251131221719451e-2
-0.7057097144686301,-6.251131221719451e-2"/></g><g transform="rotate(-90.0, -0.7057097144686301, -0.13800904977375572)"><polyline points="-0.7057097144686301,-0.12300904977375572
-0.7057097144686301,-0.15300904977375573"/></g><g transform="rotate(-90.0, -0.7057097144686301, -0.22850678733031682)"><polyline points="-0.7057097144686301,-0.2135067873303168
-0.7057097144686301,-0.24350678733031683"/></g><g transform="rotate(-90.0, -0.7057097144686301, -0.3190045248868778)"><polyline points="-0.7057097144686301,-0.3040045248868778
-0.7057097144686301,-0.3340045248868778"/></g><g transform="rotate(-90.0, -0.7057097144686301, -0.4095022624434388)"><polyline points="-0.7057097144686301,-0.3945022624434388
-0.7057097144686301,-0.4245022624434388"/></g><g transform="rotate(-90.0, -0.7057097144686301, -0.5)"><polyline points="-0.7057097144686301,-0.485
-0.7057097144686301,-0.515"/></g></g><g stroke-opacity="1.0" fill-opacity="1.0" stroke="#808080" stroke-width="0.0" fill="#808080"><rect height="0.9049773755656109" width="6.798201923464364e-3" x="-0.6887142096599694" y="-0.5"/></g><g stroke-opacity="5.0e-2" stroke="#808080" stroke-width="5.0e-3" fill="none"><polyline points="-0.6096403846928595,0.40497737556561086
-0.6096403846928595,-0.5"/></g><g stroke-opacity="5.0e-2" stroke="#808080" stroke-width="5.0e-3" fill="none"><polyline points="-0.4736763462235736,0.40497737556561086
-0.4736763462235736,-0.5"/></g><g stroke-opacity="5.0e-2" stroke="#808080" stroke-width="5.0e-3" fill="none"><polyline points="-0.3377123077542876,0.40497737556561086
-0.3377123077542876,-0.5"/></g><g stroke-opacity="5.0e-2" stroke="#808080" stroke-width="5.0e-3" fill="none"><polyline points="-0.20174826928500167,0.40497737556561086
-0.20174826928500167,-0.5"/></g><g stroke-opacity="5.0e-2" stroke="#808080" stroke-width="5.0e-3" fill="none"><polyline points="-6.578423081571572e-2,0.40497737556561086
-6.578423081571572e-2,-0.5"/></g><g stroke-opacity="5.0e-2" stroke="#808080" stroke-width="5.0e-3" fill="none"><polyline points="7.017980765357024e-2,0.40497737556561086
7.017980765357024e-2,-0.5"/></g><g stroke-opacity="5.0e-2" stroke="#808080" stroke-width="5.0e-3" fill="none"><polyline points="0.2061438461228562,0.40497737556561086
0.2061438461228562,-0.5"/></g><g stroke-opacity="5.0e-2" stroke="#808080" stroke-width="5.0e-3" fill="none"><polyline points="0.34210788459214214,0.40497737556561086
0.34210788459214214,-0.5"/></g><g stroke-opacity="5.0e-2" stroke="#808080" stroke-width="5.0e-3" fill="none"><polyline points="0.4780719230614281,0.40497737556561086
0.4780719230614281,-0.5"/></g><g stroke-opacity="5.0e-2" stroke="#808080" stroke-width="5.0e-3" fill="none"><polyline points="0.614035961530714,0.40497737556561086
0.614035961530714,-0.5"/></g><g stroke-opacity="5.0e-2" stroke="#808080" stroke-width="5.0e-3" fill="none"><polyline points="0.75,0.40497737556561086
0.75,-0.5"/></g><g fill-opacity="1.0" font-size="4.137931034482759e-2" stroke="none" stroke-width="0.0" fill="#808080" text-anchor="end"><text transform="rotate(-45.0, -0.6096403846928595, 0.5)" x="-0.6096403846928595" y="0.5">-0.5</text></g><g fill-opacity="1.0" font-size="4.137931034482759e-2" stroke="none" stroke-width="0.0" fill="#808080" text-anchor="end"><text transform="rotate(-45.0, -0.4736763462235736, 0.5)" x="-0.4736763462235736" y="0.5">-0.4</text></g><g fill-opacity="1.0" font-size="4.137931034482759e-2" stroke="none" stroke-width="0.0" fill="#808080" text-anchor="end"><text transform="rotate(-45.0, -0.3377123077542876, 0.5)" x="-0.3377123077542876" y="0.5">-0.3</text></g><g fill-opacity="1.0" font-size="4.137931034482759e-2" stroke="none" stroke-width="0.0" fill="#808080" text-anchor="end"><text transform="rotate(-45.0, -0.20174826928500167, 0.5)" x="-0.20174826928500167" y="0.5">-0.2</text></g><g fill-opacity="1.0" font-size="4.137931034482759e-2" stroke="none" stroke-width="0.0" fill="#808080" text-anchor="end"><text transform="rotate(-45.0, -6.578423081571572e-2, 0.5)" x="-6.578423081571572e-2" y="0.5">-0.1</text></g><g fill-opacity="1.0" font-size="4.137931034482759e-2" stroke="none" stroke-width="0.0" fill="#808080" text-anchor="end"><text transform="rotate(-45.0, 7.017980765357024e-2, 0.5)" x="7.017980765357024e-2" y="0.5">0</text></g><g fill-opacity="1.0" font-size="4.137931034482759e-2" stroke="none" stroke-width="0.0" fill="#808080" text-anchor="end"><text transform="rotate(-45.0, 0.2061438461228562, 0.5)" x="0.2061438461228562" y="0.5">0.1</text></g><g fill-opacity="1.0" font-size="4.137931034482759e-2" stroke="none" stroke-width="0.0" fill="#808080" text-anchor="end"><text transform="rotate(-45.0, 0.34210788459214214, 0.5)" x="0.34210788459214214" y="0.5">0.2</text></g><g fill-opacity="1.0" font-size="4.137931034482759e-2" stroke="none" stroke-width="0.0" fill="#808080" text-anchor="end"><text transform="rotate(-45.0, 0.4780719230614281, 0.5)" x="0.4780719230614281" y="0.5">0.3</text></g><g fill-opacity="1.0" font-size="4.137931034482759e-2" stroke="none" stroke-width="0.0" fill="#808080" text-anchor="end"><text transform="rotate(-45.0, 0.614035961530714, 0.5)" x="0.614035961530714" y="0.5">0.4</text></g><g fill-opacity="1.0" font-size="4.137931034482759e-2" stroke="none" stroke-width="0.0" fill="#808080" text-anchor="end"><text transform="rotate(-45.0, 0.75, 0.5)" x="0.75" y="0.5">0.5</text></g><g stroke-opacity="1.0" fill-opacity="1.0" stroke="#808080" stroke-width="5.0e-3" fill="#808080"><polyline points="-0.6096403846928595,0.44486425339366514
-0.6096403846928595,0.4148642533936651"/><polyline points="-0.4736763462235736,0.44486425339366514
-0.4736763462235736,0.4148642533936651"/><polyline points="-0.3377123077542876,0.44486425339366514
-0.3377123077542876,0.4148642533936651"/><polyline points="-0.20174826928500167,0.44486425339366514
-0.20174826928500167,0.4148642533936651"/><polyline points="-6.578423081571572e-2,0.44486425339366514
-6.578423081571572e-2,0.4148642533936651"/><polyline points="7.017980765357024e-2,0.44486425339366514
7.017980765357024e-2,0.4148642533936651"/><polyline points="0.2061438461228562,0.44486425339366514
0.2061438461228562,0.4148642533936651"/><polyline points="0.34210788459214214,0.44486425339366514
0.34210788459214214,0.4148642533936651"/><polyline points="0.4780719230614281,0.44486425339366514
0.4780719230614281,0.4148642533936651"/><polyline points="0.614035961530714,0.44486425339366514
0.614035961530714,0.4148642533936651"/><polyline points="0.75,0.44486425339366514
0.75,0.4148642533936651"/></g><g stroke-opacity="1.0" fill-opacity="1.0" stroke="#808080" stroke-width="0.0" fill="#808080"><rect height="4.524886877828038e-3" width="1.3596403846928595" x="-0.6096403846928595" y="0.414027149321267"/></g></svg>